<?xml version="1.0" encoding="UTF-8"?>
<svg version="1.1" xmlns="http://www.w3.org/2000/svg" width="100" height="100">
<path d="M0 0 C1.8552832 -0.0009668 1.8552832 -0.0009668 3.74804688 -0.00195312 C5.03646484 0.01802734 6.32488281 0.03800781 7.65234375 0.05859375 C8.94462891 0.05150391 10.23691406 0.04441406 11.56835938 0.03710938 C21.07947872 0.10160836 21.07947872 0.10160836 23.35327148 1.85913086 C23.76134033 2.39932861 24.16940918 2.93952637 24.58984375 3.49609375 C27.15238383 7.01751696 27.15238383 7.01751696 30.58984375 9.49609375 C31.45403598 12.08867044 31.76565307 13.83647082 31.90625 16.5078125 C31.94814453 17.26513672 31.99003906 18.02246094 32.03320312 18.80273438 C32.07251953 19.58841797 32.11183594 20.37410156 32.15234375 21.18359375 C32.19552734 21.98087891 32.23871094 22.77816406 32.28320312 23.59960938 C32.38911743 25.56490822 32.48996926 27.53047871 32.58984375 29.49609375 C33.72421875 29.31046875 34.85859375 29.12484375 36.02734375 28.93359375 C37.79078125 28.71703125 37.79078125 28.71703125 39.58984375 28.49609375 C41.47615918 30.38240918 40.83249667 33.63810068 40.90625 36.15625 C40.9270311 36.8207164 40.94781219 37.4851828 40.96922302 38.16978455 C41.03478033 40.29927918 41.0936316 42.42890043 41.15234375 44.55859375 C41.19552314 45.99936222 41.23913724 47.44011774 41.28320312 48.88085938 C41.39046768 52.41913415 41.49171746 55.95755244 41.58984375 59.49609375 C40.92984375 59.49609375 40.26984375 59.49609375 39.58984375 59.49609375 C39.48027344 60.06199219 39.37070313 60.62789062 39.2578125 61.2109375 C39.09925781 61.94441406 38.94070312 62.67789063 38.77734375 63.43359375 C38.55111328 64.52994141 38.55111328 64.52994141 38.3203125 65.6484375 C38.07925781 66.25816406 37.83820313 66.86789063 37.58984375 67.49609375 C36.59984375 67.82609375 35.60984375 68.15609375 34.58984375 68.49609375 C33.23575055 70.48209712 31.90526751 72.48426918 30.58984375 74.49609375 C26.66614886 79.20452761 22.28680865 81.49264244 16.58984375 83.49609375 C15.92984375 83.49609375 15.26984375 83.49609375 14.58984375 83.49609375 C14.58984375 85.47609375 14.58984375 87.45609375 14.58984375 89.49609375 C15.20472656 89.47289063 15.81960937 89.4496875 16.453125 89.42578125 C17.26136719 89.40773438 18.06960937 89.3896875 18.90234375 89.37109375 C20.10310547 89.33628906 20.10310547 89.33628906 21.328125 89.30078125 C23.58984375 89.49609375 23.58984375 89.49609375 26.58984375 91.49609375 C26.58984375 94.46609375 26.58984375 97.43609375 26.58984375 100.49609375 C14.04984375 100.49609375 1.50984375 100.49609375 -11.41015625 100.49609375 C-11.41015625 97.19609375 -11.41015625 93.89609375 -11.41015625 90.49609375 C-8.52804323 89.53538941 -6.71165581 89.39027492 -3.72265625 89.43359375 C-2.91441406 89.44261719 -2.10617188 89.45164062 -1.2734375 89.4609375 C-0.65855469 89.47253906 -0.04367188 89.48414062 0.58984375 89.49609375 C0.58984375 87.51609375 0.58984375 85.53609375 0.58984375 83.49609375 C0.00976562 83.3259375 -0.5703125 83.15578125 -1.16796875 82.98046875 C-12.83991892 79.35946771 -12.83991892 79.35946771 -15.47265625 74.55859375 C-15.78203125 73.87796875 -16.09140625 73.19734375 -16.41015625 72.49609375 C-18.05503919 70.80792442 -19.72353167 69.1425606 -21.41015625 67.49609375 C-25.89187861 62.76538682 -26.42991917 58.78314844 -26.39208984 52.49121094 C-26.28558711 49.01144858 -26.13770781 45.53605934 -25.97265625 42.05859375 C-25.92044922 40.85009766 -25.86824219 39.64160156 -25.81445312 38.39648438 C-25.68544871 35.42938291 -25.55051275 32.46267627 -25.41015625 29.49609375 C-22.12319392 28.69656237 -20.69992433 28.39950439 -17.41015625 29.49609375 C-17.41015625 30.48609375 -17.41015625 31.47609375 -17.41015625 32.49609375 C-16.42015625 32.49609375 -15.43015625 32.49609375 -14.41015625 32.49609375 C-14.74015625 25.23609375 -15.07015625 17.97609375 -15.41015625 10.49609375 C-14.75015625 10.49609375 -14.09015625 10.49609375 -13.41015625 10.49609375 C-12.99765625 9.58859375 -12.58515625 8.68109375 -12.16015625 7.74609375 C-8.99235642 1.86303692 -6.77069947 -0.01107346 0 0 Z M29.58984375 12.49609375 C29.58984375 19.75609375 29.58984375 27.01609375 29.58984375 34.49609375 C29.91984375 34.49609375 30.24984375 34.49609375 30.58984375 34.49609375 C30.58984375 27.23609375 30.58984375 19.97609375 30.58984375 12.49609375 C30.25984375 12.49609375 29.92984375 12.49609375 29.58984375 12.49609375 Z M-19.41015625 40.49609375 C-19.41015625 44.45609375 -19.41015625 48.41609375 -19.41015625 52.49609375 C-19.08015625 52.49609375 -18.75015625 52.49609375 -18.41015625 52.49609375 C-18.41015625 48.53609375 -18.41015625 44.57609375 -18.41015625 40.49609375 C-18.74015625 40.49609375 -19.07015625 40.49609375 -19.41015625 40.49609375 Z M-15.41015625 40.49609375 C-15.41015625 41.15609375 -15.41015625 41.81609375 -15.41015625 42.49609375 C-16.07015625 42.49609375 -16.73015625 42.49609375 -17.41015625 42.49609375 C-17.61205714 48.85597179 -17.03793955 54.34830504 -15.41015625 60.49609375 C-15.08015625 60.49609375 -14.75015625 60.49609375 -14.41015625 60.49609375 C-14.41015625 53.89609375 -14.41015625 47.29609375 -14.41015625 40.49609375 C-14.74015625 40.49609375 -15.07015625 40.49609375 -15.41015625 40.49609375 Z M29.58984375 40.49609375 C29.58984375 47.09609375 29.58984375 53.69609375 29.58984375 60.49609375 C29.91984375 60.49609375 30.24984375 60.49609375 30.58984375 60.49609375 C30.58984375 53.89609375 30.58984375 47.29609375 30.58984375 40.49609375 C30.25984375 40.49609375 29.92984375 40.49609375 29.58984375 40.49609375 Z M33.58984375 40.49609375 C33.58984375 44.45609375 33.58984375 48.41609375 33.58984375 52.49609375 C33.91984375 52.49609375 34.24984375 52.49609375 34.58984375 52.49609375 C34.58984375 48.53609375 34.58984375 44.57609375 34.58984375 40.49609375 C34.25984375 40.49609375 33.92984375 40.49609375 33.58984375 40.49609375 Z M31.58984375 42.49609375 C31.58984375 45.79609375 31.58984375 49.09609375 31.58984375 52.49609375 C31.91984375 52.49609375 32.24984375 52.49609375 32.58984375 52.49609375 C32.58984375 49.19609375 32.58984375 45.89609375 32.58984375 42.49609375 C32.25984375 42.49609375 31.92984375 42.49609375 31.58984375 42.49609375 Z M-18.41015625 53.49609375 C-17.41015625 56.49609375 -17.41015625 56.49609375 -17.41015625 56.49609375 Z M32.58984375 53.49609375 C33.58984375 56.49609375 33.58984375 56.49609375 33.58984375 56.49609375 Z M-25.41015625 56.49609375 C-24.41015625 59.49609375 -24.41015625 59.49609375 -24.41015625 59.49609375 Z M-17.41015625 57.49609375 C-16.41015625 59.49609375 -16.41015625 59.49609375 -16.41015625 59.49609375 Z M31.58984375 57.49609375 C32.58984375 59.49609375 32.58984375 59.49609375 32.58984375 59.49609375 Z M-24.41015625 59.49609375 C-23.41015625 61.49609375 -23.41015625 61.49609375 -23.41015625 61.49609375 Z M-14.41015625 60.49609375 C-14.74015625 61.48609375 -15.07015625 62.47609375 -15.41015625 63.49609375 C-14.42015625 63.82609375 -13.43015625 64.15609375 -12.41015625 64.49609375 C-13.07015625 63.17609375 -13.73015625 61.85609375 -14.41015625 60.49609375 Z M-23.41015625 61.49609375 C-22.41015625 63.49609375 -22.41015625 63.49609375 -22.41015625 63.49609375 Z M-12.41015625 64.49609375 C-12.41015625 65.48609375 -12.41015625 66.47609375 -12.41015625 67.49609375 C-11.75015625 66.83609375 -11.09015625 66.17609375 -10.41015625 65.49609375 C-11.07015625 65.16609375 -11.73015625 64.83609375 -12.41015625 64.49609375 Z M25.58984375 66.49609375 C25.91984375 67.15609375 26.24984375 67.81609375 26.58984375 68.49609375 C26.91984375 67.83609375 27.24984375 67.17609375 27.58984375 66.49609375 C26.92984375 66.49609375 26.26984375 66.49609375 25.58984375 66.49609375 Z M-7.41015625 69.49609375 C-7.41015625 70.15609375 -7.41015625 70.81609375 -7.41015625 71.49609375 C-6.75015625 71.16609375 -6.09015625 70.83609375 -5.41015625 70.49609375 C-6.07015625 70.16609375 -6.73015625 69.83609375 -7.41015625 69.49609375 Z M21.58984375 69.49609375 C21.25984375 70.15609375 20.92984375 70.81609375 20.58984375 71.49609375 C21.24984375 71.49609375 21.90984375 71.49609375 22.58984375 71.49609375 C22.25984375 70.83609375 21.92984375 70.17609375 21.58984375 69.49609375 Z M-3.41015625 72.49609375 C-0.21559555 75.69065445 3.08295691 75.64946691 7.46484375 75.68359375 C11.52924129 75.65353164 14.80511397 75.08966418 18.58984375 73.49609375 C15.73823984 72.68175232 13.22358244 72.37728133 10.26171875 72.3984375 C9.06289063 72.40327148 9.06289063 72.40327148 7.83984375 72.40820312 C6.60234375 72.42077148 6.60234375 72.42077148 5.33984375 72.43359375 C4.499375 72.43810547 3.65890625 72.44261719 2.79296875 72.44726562 C0.72522974 72.45901414 -1.34247249 72.47694853 -3.41015625 72.49609375 Z M1.58984375 81.49609375 C1.58984375 84.79609375 1.58984375 88.09609375 1.58984375 91.49609375 C1.91984375 91.49609375 2.24984375 91.49609375 2.58984375 91.49609375 C2.58984375 88.19609375 2.58984375 84.89609375 2.58984375 81.49609375 C2.25984375 81.49609375 1.92984375 81.49609375 1.58984375 81.49609375 Z M12.58984375 81.49609375 C12.58984375 84.79609375 12.58984375 88.09609375 12.58984375 91.49609375 C12.91984375 91.49609375 13.24984375 91.49609375 13.58984375 91.49609375 C13.58984375 88.19609375 13.58984375 84.89609375 13.58984375 81.49609375 C13.25984375 81.49609375 12.92984375 81.49609375 12.58984375 81.49609375 Z M-7.41015625 90.49609375 C-7.41015625 90.82609375 -7.41015625 91.15609375 -7.41015625 91.49609375 C-4.77015625 91.49609375 -2.13015625 91.49609375 0.58984375 91.49609375 C0.58984375 91.16609375 0.58984375 90.83609375 0.58984375 90.49609375 C-2.05015625 90.49609375 -4.69015625 90.49609375 -7.41015625 90.49609375 Z M14.58984375 90.49609375 C14.58984375 90.82609375 14.58984375 91.15609375 14.58984375 91.49609375 C17.22984375 91.49609375 19.86984375 91.49609375 22.58984375 91.49609375 C22.58984375 91.16609375 22.58984375 90.83609375 22.58984375 90.49609375 C19.94984375 90.49609375 17.30984375 90.49609375 14.58984375 90.49609375 Z " fill="#347685" transform="translate(42.41015625,-0.49609375)"/>
<path d="M0 0 C1.47533203 0.02707031 1.47533203 0.02707031 2.98046875 0.0546875 C5.40463783 0.10175874 7.82682059 0.16749258 10.25 0.25 C11.55197811 2.85395623 11.01237361 3.90172857 10.3125 6.6875 C9.64268748 9.38005762 9.25 11.45222173 9.25 14.25 C13.21 14.25 17.17 14.25 21.25 14.25 C21.25 15.9 21.25 17.55 21.25 19.25 C20.09371094 19.32347656 20.09371094 19.32347656 18.9140625 19.3984375 C17.91117188 19.47320313 16.90828125 19.54796875 15.875 19.625 C14.37839844 19.72941406 14.37839844 19.72941406 12.8515625 19.8359375 C10.09491121 20.01363964 10.09491121 20.01363964 8.25 22.25 C7.60232207 24.82061311 7.60232207 24.82061311 7.25 27.25 C7.91 27.25 8.57 27.25 9.25 27.25 C9.58 25.93 9.91 24.61 10.25 23.25 C11.508125 23.229375 12.76625 23.20875 14.0625 23.1875 C14.77019531 23.17589844 15.47789063 23.16429688 16.20703125 23.15234375 C18.25 23.25 18.25 23.25 21.25 24.25 C21.25 25.57 21.25 26.89 21.25 28.25 C17.62 28.25 13.99 28.25 10.25 28.25 C10.58 29.24 10.91 30.23 11.25 31.25 C10.59 31.91 9.93 32.57 9.25 33.25 C10.53197266 33.23259766 10.53197266 33.23259766 11.83984375 33.21484375 C12.94457031 33.20582031 14.04929688 33.19679687 15.1875 33.1875 C16.28964844 33.17589844 17.39179687 33.16429687 18.52734375 33.15234375 C21.25 33.25 21.25 33.25 22.25 34.25 C22.29063832 35.91617115 22.292721 37.58388095 22.25 39.25 C19.28821227 40.92110042 16.87928808 41.57682752 13.5 41.875 C12.70078125 41.94976562 11.9015625 42.02453125 11.078125 42.1015625 C10.47484375 42.15054688 9.8715625 42.19953125 9.25 42.25 C9.25 42.58 9.25 42.91 9.25 43.25 C13.21 43.25 17.17 43.25 21.25 43.25 C21.58 44.24 21.91 45.23 22.25 46.25 C22.91 46.25 23.57 46.25 24.25 46.25 C23.92 48.23 23.59 50.21 23.25 52.25 C22.59 52.25 21.93 52.25 21.25 52.25 C22.0234375 52.86875 22.0234375 52.86875 22.8125 53.5 C24.25 55.25 24.25 55.25 24.1953125 57.2265625 C23.25 59.25 23.25 59.25 20.73828125 60.4453125 C19.69027344 60.75210938 18.64226562 61.05890625 17.5625 61.375 C16.52738281 61.68695313 15.49226563 61.99890625 14.42578125 62.3203125 C13.37777344 62.62710938 12.32976563 62.93390625 11.25 63.25 C10.2084375 63.60707031 9.166875 63.96414062 8.09375 64.33203125 C4.83583183 65.38369439 1.63513735 65.78537331 -1.75 66.25 C-2.08 66.58 -2.41 66.91 -2.75 67.25 C-6.13186995 67.68839055 -9.37270898 67.73172213 -12.75 67.25 C-15.57424288 65.05977082 -17.16508603 63.41982793 -18.75 60.25 C-18.82339657 58.57178754 -18.83354356 56.89062238 -18.8125 55.2109375 C-18.80412109 54.16599121 -18.79574219 53.12104492 -18.78710938 52.04443359 C-18.77486328 50.91602051 -18.76261719 49.78760742 -18.75 48.625 C-18.67100373 35.80785473 -19.09384186 23.04857391 -19.75 10.25 C-19.09 10.25 -18.43 10.25 -17.75 10.25 C-17.3375 9.3425 -16.925 8.435 -16.5 7.5 C-12.24844541 -0.39574424 -8.44574896 -0.2923961 0 0 Z " fill="#82BBC4" transform="translate(46.75,-0.25)"/>
<path d="M0 0 C6.47886029 -0.36672794 6.47886029 -0.36672794 8.6875 1.1875 C9.120625 1.785625 9.55375 2.38375 10 3 C12.56254008 6.52142321 12.56254008 6.52142321 16 9 C16.86419223 11.59257669 17.17580932 13.34037707 17.31640625 16.01171875 C17.35830078 16.76904297 17.40019531 17.52636719 17.44335938 18.30664062 C17.48267578 19.09232422 17.52199219 19.87800781 17.5625 20.6875 C17.60568359 21.48478516 17.64886719 22.28207031 17.69335938 23.10351562 C17.79927368 25.06881447 17.90012551 27.03438496 18 29 C18.33 29 18.66 29 19 29 C19.33 31.31 19.66 33.62 20 36 C18.02 36 16.04 36 14 36 C13.87625 36.969375 13.7525 37.93875 13.625 38.9375 C13.41875 39.948125 13.2125 40.95875 13 42 C10.23547967 43.38226016 7.9538637 43.09525387 4.875 43.0625 C3.77929688 43.05347656 2.68359375 43.04445312 1.5546875 43.03515625 C0.71164063 43.02355469 -0.13140625 43.01195312 -1 43 C-1.33 44.32 -1.66 45.64 -2 47 C-2.3632199 42.52028796 -2.3632199 42.52028796 -0.84375 40.34375 C1.72742059 38.46984601 3.5445625 38.70157279 6.6875 38.8125 C7.68136719 38.83957031 8.67523438 38.86664063 9.69921875 38.89453125 C10.83810547 38.94673828 10.83810547 38.94673828 12 39 C11.67 37.35 11.34 35.7 11 34 C7.04 33.67 3.08 33.34 -1 33 C-1.33 34.32 -1.66 35.64 -2 37 C-2.22057835 33.02958963 -1.88343932 31.76687864 0 28 C3.63 28 7.26 28 11 28 C11 26.68 11 25.36 11 24 C7.37 24 3.74 24 0 24 C-0.33 24.99 -0.66 25.98 -1 27 C-1.66 27 -2.32 27 -3 27 C-3.3632199 22.52028796 -3.3632199 22.52028796 -1.84375 20.34375 C0.72742059 18.46984601 2.5445625 18.70157279 5.6875 18.8125 C7.17830078 18.85310547 7.17830078 18.85310547 8.69921875 18.89453125 C9.83810547 18.94673828 9.83810547 18.94673828 11 19 C11 17.35 11 15.7 11 14 C4.565 14.495 4.565 14.495 -2 15 C-1.0625 3.75 -1.0625 3.75 0 0 Z M15 12 C15 19.26 15 26.52 15 34 C15.33 34 15.66 34 16 34 C16 26.74 16 19.48 16 12 C15.67 12 15.34 12 15 12 Z " fill="#1E8B97" transform="translate(57,0)"/>
<path d="M0 0 C0.53625 0.165 1.0725 0.33 1.625 0.5 C4.06766839 1.13412842 4.06766839 1.13412842 6.875 0.75 C11.35054189 1.10804335 12.8566397 2.8566397 16 6 C16 6.66 16 7.32 16 8 C16.61488281 7.97679688 17.22976562 7.95359375 17.86328125 7.9296875 C18.67152344 7.91164063 19.47976562 7.89359375 20.3125 7.875 C21.11300781 7.85179688 21.91351563 7.82859375 22.73828125 7.8046875 C25 8 25 8 28 10 C28 12.97 28 15.94 28 19 C15.46 19 2.92 19 -10 19 C-10 15.7 -10 12.4 -10 9 C-7.11788698 8.03929566 -5.30149956 7.89418117 -2.3125 7.9375 C-1.10013672 7.95103516 -1.10013672 7.95103516 0.13671875 7.96484375 C1.05904297 7.98224609 1.05904297 7.98224609 2 8 C2 6.02 2 4.04 2 2 C1.34 2 0.68 2 0 2 C0 1.34 0 0.68 0 0 Z M-6 9 C-6 9.33 -6 9.66 -6 10 C-3.36 10 -0.72 10 2 10 C2 9.67 2 9.34 2 9 C-0.64 9 -3.28 9 -6 9 Z M16 9 C16 9.33 16 9.66 16 10 C18.64 10 21.28 10 24 10 C24 9.67 24 9.34 24 9 C21.36 9 18.72 9 16 9 Z " fill="#6EB3BE" transform="translate(41,81)"/>
<path d="M0 0 C0.33 0 0.66 0 1 0 C1 8.58 1 17.16 1 26 C0.01 26.495 0.01 26.495 -1 27 C-1 26.01 -1 25.02 -1 24 C-1.66 24 -2.32 24 -3 24 C-4.02703748 29.55493924 -4.02703748 29.55493924 -3 35 C-3.99 35.495 -3.99 35.495 -5 36 C-5 35.34 -5 34.68 -5 34 C-5.66 34.66 -6.32 35.32 -7 36 C-7.99 36.495 -7.99 36.495 -9 37 C-9.29390625 37.64453125 -9.5878125 38.2890625 -9.890625 38.953125 C-11.2511667 41.46342024 -12.07970921 41.84651815 -14.75 42.75 C-21.94159648 44.86791353 -31.00577106 45.60592838 -38.0625 42.6875 C-43.9375 39.3125 -43.9375 39.3125 -46 38 C-42.97833856 36.99277952 -41.02274409 36.92658323 -37.875 37 C-36.25043671 37.03767103 -34.62433238 37.04657584 -33 37 C-32.505 36.505 -32.505 36.505 -32 36 C-30.13038213 35.67561835 -28.25384941 35.39074297 -26.375 35.125 C-21.39710606 34.33467087 -17.51938225 33.16930348 -13 31 C-11.88625 30.67 -10.7725 30.34 -9.625 30 C-8.75875 29.67 -7.8925 29.34 -7 29 C-6.505 27.515 -6.505 27.515 -6 26 C-6.99 25.67 -7.98 25.34 -9 25 C-9 24.34 -9 23.68 -9 23 C-8.34 23 -7.68 23 -7 23 C-6.67 21.02 -6.34 19.04 -6 17 C-6.66 17 -7.32 17 -8 17 C-8.495 15.02 -8.495 15.02 -9 13 C-8.34 13 -7.68 13 -7 13 C-6.67 11.02 -6.34 9.04 -6 7 C-4.02 7 -2.04 7 0 7 C0 4.69 0 2.38 0 0 Z M-1 11 C-1 14.96 -1 18.92 -1 23 C-0.67 23 -0.34 23 0 23 C0 19.04 0 15.08 0 11 C-0.33 11 -0.66 11 -1 11 Z M-3 13 C-3 16.3 -3 19.6 -3 23 C-2.67 23 -2.34 23 -2 23 C-2 19.7 -2 16.4 -2 13 C-2.33 13 -2.66 13 -3 13 Z " fill="#183F48" transform="translate(77,29)"/>
<path d="M0 0 C0.99 0 1.98 0 3 0 C3.01458252 0.71542969 3.02916504 1.43085938 3.04418945 2.16796875 C3.11919213 5.44582436 3.21567955 8.72271917 3.3125 12 C3.33505859 13.12535156 3.35761719 14.25070313 3.38085938 15.41015625 C3.64991467 23.77532994 4.63901695 30.5242578 9.9375 37.3125 C10.42089844 37.94800781 10.90429688 38.58351562 11.40234375 39.23828125 C18.28908333 46.83221659 27.33046077 47.76404386 37 49 C37 49.66 37 50.32 37 51 C36.43490723 50.99476318 35.86981445 50.98952637 35.28759766 50.98413086 C32.7334097 50.96337578 30.17923947 50.9503446 27.625 50.9375 C26.73554687 50.92912109 25.84609375 50.92074219 24.9296875 50.91210938 C24.07890625 50.90888672 23.228125 50.90566406 22.3515625 50.90234375 C21.56604004 50.89710693 20.78051758 50.89187012 19.97119141 50.88647461 C17.92227332 50.87426047 17.92227332 50.87426047 16 52 C12.11321279 49.63412953 9.87115854 48.11654878 8 44 C6.35511706 42.31183067 4.68662458 40.64646685 3 39 C-2.32285752 33.38142817 -2.09946974 28.05340355 -1.9140625 20.6640625 C-1.82431565 18.31744632 -1.7277856 15.97108123 -1.625 13.625 C-1.58117187 12.42488281 -1.53734375 11.22476563 -1.4921875 9.98828125 C-1.13107844 1.13107844 -1.13107844 1.13107844 0 0 Z M-1 28 C0 31 0 31 0 31 Z M0 31 C1 33 1 33 1 33 Z M1 33 C2 35 2 35 2 35 Z " fill="#87C4CC" transform="translate(18,28)"/>
<path d="M0 0 C0.66 0 1.32 0 2 0 C1.67 1.98 1.34 3.96 1 6 C0.34 6 -0.32 6 -1 6 C-0.484375 6.4125 0.03125 6.825 0.5625 7.25 C2 9 2 9 1.9453125 10.9765625 C1 13 1 13 -1.51171875 14.1953125 C-2.55972656 14.50210938 -3.60773438 14.80890625 -4.6875 15.125 C-5.72261719 15.43695313 -6.75773437 15.74890625 -7.82421875 16.0703125 C-9.39623047 16.53050781 -9.39623047 16.53050781 -11 17 C-12.0415625 17.35707031 -13.083125 17.71414062 -14.15625 18.08203125 C-17.41416817 19.13369439 -20.61486265 19.53537331 -24 20 C-24.33 20.33 -24.66 20.66 -25 21 C-33.29341639 22.07507249 -33.29341639 22.07507249 -36.7734375 19.8828125 C-38.125 18.5 -38.125 18.5 -40 16 C-36.47079463 14.67654799 -33.59651723 15.26003482 -30 15.94140625 C-27.4890638 16.01496883 -26.21121605 15.14577351 -24 14 C-21.63817947 13.65068873 -19.3072815 13.49965836 -16.92578125 13.34375 C-16.29027344 13.2303125 -15.65476562 13.116875 -15 13 C-13.85480988 10.70961976 -13.92648088 9.46931463 -14 6.9375 C-14 3 -14 3 -13 2 C-10.81360547 1.92741054 -8.62499611 1.91626217 -6.4375 1.9375 C-4.64119141 1.95103516 -4.64119141 1.95103516 -2.80859375 1.96484375 C-1.88175781 1.97644531 -0.95492187 1.98804688 0 2 C0 1.34 0 0.68 0 0 Z " fill="#70ACB5" transform="translate(69,46)"/>
<path d="M0 0 C0.99 0.33 1.98 0.66 3 1 C1.125 5.75 1.125 5.75 0 8 C1.32 8.33 2.64 8.66 4 9 C3.195625 9.28875 2.39125 9.5775 1.5625 9.875 C-1.1326468 10.73262568 -1.1326468 10.73262568 -2 13 C-1.34 13 -0.68 13 0 13 C0 12.34 0 11.68 0 11 C4.29 11 8.58 11 13 11 C12.67 13.64 12.34 16.28 12 19 C8.04 19.33 4.08 19.66 0 20 C0 20.33 0 20.66 0 21 C4.29 21 8.58 21 13 21 C12.67 22.32 12.34 23.64 12 25 C9.69 25.33 7.38 25.66 5 26 C7.31 26.33 9.62 26.66 12 27 C12 27.33 12 27.66 12 28 C7.38 28.33 2.76 28.66 -2 29 C-3.61626656 23.94752447 -4.34166823 19.3985816 -4.625 14.0625 C-4.66367187 13.37865234 -4.70234375 12.69480469 -4.7421875 11.99023438 C-4.83522412 10.32720487 -4.91863787 8.66364153 -5 7 C-4.34 7 -3.68 7 -3 7 C-0.97117719 3.6504936 -0.97117719 3.6504936 0 0 Z " fill="#9FD4DB" transform="translate(32,3)"/>
<path d="M0 0 C1.65 0.33 3.3 0.66 5 1 C5.33 10.9 5.66 20.8 6 31 C3.69 31.33 1.38 31.66 -1 32 C-0.67 21.44 -0.34 10.88 0 0 Z " fill="#448490" transform="translate(78,28)"/>
<path d="M0 0 C6.47886029 -0.36672794 6.47886029 -0.36672794 8.6875 1.1875 C9.120625 1.785625 9.55375 2.38375 10 3 C12.56254008 6.52142321 12.56254008 6.52142321 16 9 C15.67 9.99 15.34 10.98 15 12 C11.43954823 13.18681726 8.56191663 13.09689832 4.8125 13.0625 C3.54019531 13.05347656 2.26789062 13.04445313 0.95703125 13.03515625 C-0.50669922 13.01775391 -0.50669922 13.01775391 -2 13 C-1.85769192 11.58297487 -1.71099254 10.1663904 -1.5625 8.75 C-1.48128906 7.96109375 -1.40007813 7.1721875 -1.31640625 6.359375 C-1.02365007 4.17635361 -0.57935581 2.1226818 0 0 Z " fill="#6AAEBA" transform="translate(57,0)"/>
<path d="M0 0 C1.0828125 1.11375 1.0828125 1.11375 2.1875 2.25 C10.80993776 10.68082804 18.26632404 12.50020683 30 14 C30 14.66 30 15.32 30 16 C29.15236084 15.99214478 29.15236084 15.99214478 28.28759766 15.98413086 C25.7334097 15.96337578 23.17923947 15.9503446 20.625 15.9375 C19.73554687 15.92912109 18.84609375 15.92074219 17.9296875 15.91210938 C17.07890625 15.90888672 16.228125 15.90566406 15.3515625 15.90234375 C14.56604004 15.89710693 13.78051758 15.89187012 12.97119141 15.88647461 C10.92227332 15.87426047 10.92227332 15.87426047 9 17 C2.5853211 13.09541284 2.5853211 13.09541284 1 9 C0.34 8.01 -0.32 7.02 -1 6 C-0.34 6 0.32 6 1 6 C0.67 4.02 0.34 2.04 0 0 Z " fill="#599198" transform="translate(25,63)"/>
<path d="M0 0 C8.73139464 -0.11624638 17.31126982 0.10884819 26 1 C26 1.33 26 1.66 26 2 C23.69 2.33 21.38 2.66 19 3 C19.33 4.32 19.66 5.64 20 7 C13.4 7 6.8 7 0 7 C0 4.69 0 2.38 0 0 Z " fill="#87C2CC" transform="translate(31,92)"/>
<path d="M0 0 C0.33 0 0.66 0 1 0 C1 4.62 1 9.24 1 14 C0.67 13.34 0.34 12.68 0 12 C-0.825 12.165 -1.65 12.33 -2.5 12.5 C-6.41272317 13.05896045 -10.05183173 13.06807187 -14 13 C-14.33 13.99 -14.66 14.98 -15 16 C-15.66 16 -16.32 16 -17 16 C-17.3632199 11.52028796 -17.3632199 11.52028796 -15.84375 9.34375 C-13.27257941 7.46984601 -11.4554375 7.70157279 -8.3125 7.8125 C-7.31863281 7.83957031 -6.32476562 7.86664062 -5.30078125 7.89453125 C-4.16189453 7.94673828 -4.16189453 7.94673828 -3 8 C-3 6.35 -3 4.7 -3 3 C-9.435 3.495 -9.435 3.495 -16 4 C-15.67 3.01 -15.34 2.02 -15 1 C-12.87506859 0.97306425 -10.75004088 0.95363372 -8.625 0.9375 C-7.44164062 0.92589844 -6.25828125 0.91429687 -5.0390625 0.90234375 C-2 1 -2 1 0 2 C0 1.34 0 0.68 0 0 Z " fill="#497A82" transform="translate(71,11)"/>
<path d="M0 0 C2 3 2 3 3 5 C5.02463255 5.65213292 5.02463255 5.65213292 7 6 C5.35 6.66 3.7 7.32 2 8 C2.33 8 2.66 8 3 8 C7.66666667 8 12.33333333 8 17 8 C16.2421875 12.7578125 16.2421875 12.7578125 14.0625 14.9375 C9.45796777 16.53499077 5.60636528 15.24327141 1 14 C-1.20808081 8.80451575 -0.93402724 5.41735797 0 0 Z " fill="#9AD0D8" transform="translate(29,45)"/>
<path d="M0 0 C-4.0201671 5.06890635 -9.40167754 6.43213121 -15.57421875 7.40625 C-18.38590615 7.70178503 -21.17538353 7.8781538 -24 8 C-25.16144531 8.05285156 -26.32289062 8.10570313 -27.51953125 8.16015625 C-34.3129003 8.3324247 -34.3129003 8.3324247 -37 8 C-37.66 7.01 -38.32 6.02 -39 5 C-38.07316406 5.01160156 -37.14632812 5.02320312 -36.19140625 5.03515625 C-34.39509766 5.04869141 -34.39509766 5.04869141 -32.5625 5.0625 C-30.77005859 5.07990234 -30.77005859 5.07990234 -28.94140625 5.09765625 C-26.11126659 5.33901792 -26.11126659 5.33901792 -25 4 C-23.13038213 3.67561835 -21.25384941 3.39074297 -19.375 3.125 C-15.68408698 2.55212132 -12.47935699 1.96701392 -9.125 0.3125 C-5.54359621 -1.19168959 -3.69865039 -0.99232084 0 0 Z " fill="#2E6A74" transform="translate(70,61)"/>
<path d="M0 0 C0 2.31 0 4.62 0 7 C-12.54 7 -25.08 7 -38 7 C-38 6.67 -38 6.34 -38 6 C-31.4 6 -24.8 6 -18 6 C-17.67 4.68 -17.34 3.36 -17 2 C-14.35425814 1.66592662 -11.70841381 1.33270624 -9.0625 1 C-7.93038086 0.85691406 -7.93038086 0.85691406 -6.77539062 0.7109375 C-1.11328125 0 -1.11328125 0 0 0 Z " fill="#407780" transform="translate(69,93)"/>
<path d="M0 0 C0.99 0.99 1.98 1.98 3 3 C3.66 2.34 4.32 1.68 5 1 C5.12375 2.11375 5.2475 3.2275 5.375 4.375 C6.09926538 8.57573918 7.11966312 9.14634 10.0625 12 C12 14 12 14 13 16 C15.44563902 16.82423751 17.81301061 17.51095042 20.3125 18.125 C21.02857422 18.30385742 21.74464844 18.48271484 22.48242188 18.66699219 C28.69428426 20.11900811 34.62789537 20.43446168 41 20 C40 23 40 23 38.453125 24.1796875 C34.90700152 25.36549312 31.44162151 25.20978989 27.75 25.125 C27.00492188 25.11597656 26.25984375 25.10695313 25.4921875 25.09765625 C23.66131941 25.07418358 21.83061762 25.03831525 20 25 C20 24.67 20 24.34 20 24 C24.29 24 28.58 24 33 24 C33 23.34 33 22.68 33 22 C31.865625 22.061875 30.73125 22.12375 29.5625 22.1875 C24.6240697 22.1875 20.54841995 20.81597364 16 19 C14.96875 18.608125 13.9375 18.21625 12.875 17.8125 C6.95993975 14.08344028 2.61815416 8.46838087 0 2 C0 1.34 0 0.68 0 0 Z " fill="#445A6A" transform="translate(22,55)"/>
<path d="M0 0 C0.66 0.33 1.32 0.66 2 1 C-2.63519565 7.58685697 -7.43383576 11.33920747 -15 14 C-15.66 14 -16.32 14 -17 14 C-17.33 15.32 -17.66 16.64 -18 18 C-18.39703125 17.52820313 -18.7940625 17.05640625 -19.203125 16.5703125 C-21.3963684 14.65360849 -22.89690324 14.36233019 -25.75 13.875 C-26.62914062 13.7203125 -27.50828125 13.565625 -28.4140625 13.40625 C-31.60667862 12.90469097 -34.79524988 12.41801089 -38 12 C-38 11.01 -38 10.02 -38 9 C-37.16726562 9.15597656 -36.33453125 9.31195313 -35.4765625 9.47265625 C-23.66231416 11.26470516 -14.06543959 10.98810774 -4 4 C-2.63040609 2.70394133 -1.28445156 1.38048533 0 0 Z " fill="#12404C" transform="translate(74,69)"/>
<path d="M0 0 C0.99 0.33 1.98 0.66 3 1 C2.85546875 2.8671875 2.85546875 2.8671875 2 5 C-0.51171875 6.1953125 -0.51171875 6.1953125 -3.6875 7.125 C-5.24017578 7.59292969 -5.24017578 7.59292969 -6.82421875 8.0703125 C-8.39623047 8.53050781 -8.39623047 8.53050781 -10 9 C-11.0415625 9.35707031 -12.083125 9.71414062 -13.15625 10.08203125 C-16.41416817 11.13369439 -19.61486265 11.53537331 -23 12 C-23.33 12.33 -23.66 12.66 -24 13 C-25.64230364 13.1245486 -27.29052276 13.17568524 -28.9375 13.1875 C-29.83339844 13.20167969 -30.72929688 13.21585938 -31.65234375 13.23046875 C-34 13 -34 13 -36 11 C-35.22914062 11.02320312 -34.45828125 11.04640625 -33.6640625 11.0703125 C-32.15972656 11.09738281 -32.15972656 11.09738281 -30.625 11.125 C-29.62726562 11.14820312 -28.62953125 11.17140625 -27.6015625 11.1953125 C-24.83737827 11.27216848 -24.83737827 11.27216848 -23 9 C-20.72540412 8.69787152 -18.48373437 8.62214523 -16.19140625 8.5390625 C-13.81606982 8.20854611 -13.81606982 8.20854611 -12.5703125 5.9765625 C-11 4 -11 4 -8.30078125 3.609375 C-6.82158203 3.67898437 -6.82158203 3.67898437 -5.3125 3.75 C-4.31863281 3.78609375 -3.32476562 3.8221875 -2.30078125 3.859375 C-1.54152344 3.90578125 -0.78226563 3.9521875 0 4 C0 2.68 0 1.36 0 0 Z " fill="#5A9AA3" transform="translate(68,54)"/>
<path d="M0 0 C0.33 0 0.66 0 1 0 C1 8.58 1 17.16 1 26 C0.34 26.33 -0.32 26.66 -1 27 C-1 26.01 -1 25.02 -1 24 C-1.66 24 -2.32 24 -3 24 C-3.33 24.66 -3.66 25.32 -4 26 C-4 21.05 -4 16.1 -4 11 C-4.66 11 -5.32 11 -6 11 C-6 9.68 -6 8.36 -6 7 C-4.02 7 -2.04 7 0 7 C0 4.69 0 2.38 0 0 Z M-1 11 C-1 14.96 -1 18.92 -1 23 C-0.67 23 -0.34 23 0 23 C0 19.04 0 15.08 0 11 C-0.33 11 -0.66 11 -1 11 Z M-3 13 C-3 16.3 -3 19.6 -3 23 C-2.67 23 -2.34 23 -2 23 C-2 19.7 -2 16.4 -2 13 C-2.33 13 -2.66 13 -3 13 Z " fill="#173445" transform="translate(77,29)"/>
<path d="M0 0 C0.66 0 1.32 0 2 0 C1.625 2.9375 1.625 2.9375 1 6 C-2.26514506 7.63257253 -5.86158612 7.39801914 -9.46875 7.62109375 C-12.1645758 7.76815328 -12.1645758 7.76815328 -14 10 C-14.04241723 7.66705225 -14.04092937 5.33297433 -14 3 C-13 2 -13 2 -10.05859375 1.90234375 C-8.26615234 1.91974609 -8.26615234 1.91974609 -6.4375 1.9375 C-4.64119141 1.95103516 -4.64119141 1.95103516 -2.80859375 1.96484375 C-1.88175781 1.97644531 -0.95492187 1.98804688 0 2 C0 1.34 0 0.68 0 0 Z " fill="#5FA0AB" transform="translate(69,46)"/>
<path d="M0 0 C0.33 0.66 0.66 1.32 1 2 C1.66 2 2.32 2 3 2 C3 3.98 3 5.96 3 8 C-0.31070838 9.00109515 -3.30084769 9.10356134 -6.75 9.0625 C-7.73484375 9.05347656 -8.7196875 9.04445313 -9.734375 9.03515625 C-10.48203125 9.02355469 -11.2296875 9.01195312 -12 9 C-12.33 10.32 -12.66 11.64 -13 13 C-13.22057835 9.02958963 -12.88343932 7.76687864 -11 4 C-7.37 4 -3.74 4 0 4 C0 2.68 0 1.36 0 0 Z " fill="#568A93" transform="translate(68,24)"/>
<path d="M0 0 C4.29 0 8.58 0 13 0 C12.67 1.65 12.34 3.3 12 5 C8.04 5 4.08 5 0 5 C0 3.35 0 1.7 0 0 Z " fill="#E4E9EA" transform="translate(32,43)"/>
<path d="M0 0 C3.5742977 0.32493615 5.55712453 0.63870686 8.375 2.9375 C10 5 10 5 10 7 C10.61488281 6.97679688 11.22976562 6.95359375 11.86328125 6.9296875 C12.67152344 6.91164063 13.47976562 6.89359375 14.3125 6.875 C15.11300781 6.85179688 15.91351563 6.82859375 16.73828125 6.8046875 C19 7 19 7 22 9 C18.43954823 10.18681726 15.56191663 10.09689832 11.8125 10.0625 C10.54019531 10.05347656 9.26789062 10.04445313 7.95703125 10.03515625 C6.49330078 10.01775391 6.49330078 10.01775391 5 10 C5 8.02 5 6.04 5 4 C4.34 4 3.68 4 3 4 C1.375 2 1.375 2 0 0 Z M10 8 C10 8.33 10 8.66 10 9 C12.64 9 15.28 9 18 9 C18 8.67 18 8.34 18 8 C15.36 8 12.72 8 10 8 Z " fill="#3A788D" transform="translate(47,82)"/>
<path d="M0 0 C3.96 0 7.92 0 12 0 C12.33 1.65 12.66 3.3 13 5 C9.04 5 5.08 5 1 5 C0.67 3.35 0.34 1.7 0 0 Z " fill="#B6BEC0" transform="translate(56,43)"/>
<path d="M0 0 C-1.22269381 0.82220849 -2.45351784 1.63233234 -3.6875 2.4375 C-4.37199219 2.88996094 -5.05648437 3.34242187 -5.76171875 3.80859375 C-9.99282788 6.0607548 -14.09408739 6.11934834 -18.8125 6.0625 C-20.27623047 6.04896484 -20.27623047 6.04896484 -21.76953125 6.03515625 C-22.87361328 6.01775391 -22.87361328 6.01775391 -24 6 C-23.67 5.34 -23.34 4.68 -23 4 C-20.5234375 3.47265625 -20.5234375 3.47265625 -17.375 3.0625 C-13.64415862 2.51306493 -10.40496905 1.94807465 -7 0.3125 C-3.77334225 -1.09916277 -3.16765214 -1.01719864 0 0 Z " fill="#3A7A83" transform="translate(68,61)"/>
<path d="M0 0 C3.96 0 7.92 0 12 0 C12 1.65 12 3.3 12 5 C8.04 5 4.08 5 0 5 C0 3.35 0 1.7 0 0 Z " fill="#EBECED" transform="translate(32,33)"/>
<path d="M0 0 C2.31 0 4.62 0 7 0 C7 0.66 7 1.32 7 2 C6.34 2 5.68 2 5 2 C5 2.66 5 3.32 5 4 C4.34 4 3.68 4 3 4 C3.66 8.62 4.32 13.24 5 18 C4.01 18.66 3.02 19.32 2 20 C-0.03120707 16.95318939 -0.24659875 16.39881676 -0.1953125 12.98828125 C-0.18886719 12.23095703 -0.18242187 11.47363281 -0.17578125 10.69335938 C-0.15902344 9.90767578 -0.14226563 9.12199219 -0.125 8.3125 C-0.11597656 7.51521484 -0.10695313 6.71792969 -0.09765625 5.89648438 C-0.07411585 3.930861 -0.03824547 1.96539225 0 0 Z M1 2 C1 5.96 1 9.92 1 14 C1.33 14 1.66 14 2 14 C2 10.04 2 6.08 2 2 C1.67 2 1.34 2 1 2 Z M2 15 C3 18 3 18 3 18 Z " fill="#25435D" transform="translate(22,38)"/>
<path d="M0 0 C0.33 0.99 0.66 1.98 1 3 C1.66 3 2.32 3 3 3 C2.67 4.32 2.34 5.64 2 7 C-2.62 7.33 -7.24 7.66 -12 8 C-12 9.32 -12 10.64 -12 12 C-12.66 12 -13.32 12 -14 12 C-14.3632199 7.52028796 -14.3632199 7.52028796 -12.84375 5.34375 C-10.27257941 3.46984601 -8.4554375 3.70157279 -5.3125 3.8125 C-4.31863281 3.83957031 -3.32476562 3.86664062 -2.30078125 3.89453125 C-1.16189453 3.94673828 -1.16189453 3.94673828 0 4 C0 2.68 0 1.36 0 0 Z " fill="#65A5AF" transform="translate(68,15)"/>
<path d="M0 0 C0.66 0.33 1.32 0.66 2 1 C1.125 5.75 1.125 5.75 0 8 C-3.16015625 8.4140625 -3.16015625 8.4140625 -7.0625 8.625 C-8.35285156 8.69976562 -9.64320312 8.77453125 -10.97265625 8.8515625 C-11.97167969 8.90054688 -12.97070312 8.94953125 -14 9 C-14 7.68 -14 6.36 -14 5 C-9.38 5 -4.76 5 0 5 C0 3.35 0 1.7 0 0 Z " fill="#98CED5" transform="translate(44,33)"/>
<path d="M0 0 C3.63 0 7.26 0 11 0 C11 1.65 11 3.3 11 5 C7.37 5 3.74 5 0 5 C0 3.35 0 1.7 0 0 Z " fill="#CCCECF" transform="translate(57,33)"/>
<path d="M0 0 C6.93 0 13.86 0 21 0 C20 3 20 3 18.453125 4.1796875 C14.90700152 5.36549312 11.44162151 5.20978989 7.75 5.125 C7.00492188 5.11597656 6.25984375 5.10695313 5.4921875 5.09765625 C3.66131941 5.07418358 1.83061762 5.03831525 0 5 C0 4.67 0 4.34 0 4 C4.29 4 8.58 4 13 4 C13 3.34 13 2.68 13 2 C11.783125 2.020625 10.56625 2.04125 9.3125 2.0625 C6.08022678 2.06824116 3.15065259 1.78766315 0 1 C0 0.67 0 0.34 0 0 Z " fill="#42828D" transform="translate(42,75)"/>
<path d="M0 0 C0.33 0.99 0.66 1.98 1 3 C1.66 3 2.32 3 3 3 C3 4.32 3 5.64 3 7 C4.32 6.67 5.64 6.34 7 6 C7.125 8.875 7.125 8.875 7 12 C5 14 5 14 2 15 C2.33 13.68 2.66 12.36 3 11 C2.01 11.33 1.02 11.66 0 12 C-0.19477739 10.37585622 -0.38059458 8.75063577 -0.5625 7.125 C-0.66691406 6.22007813 -0.77132812 5.31515625 -0.87890625 4.3828125 C-1 2 -1 2 0 0 Z M0 4 C1 6 1 6 1 6 Z " fill="#26636D" transform="translate(74,53)"/>
<path d="M0 0 C0.66 0 1.32 0 2 0 C1.625 2.9375 1.625 2.9375 1 6 C-1.76452033 7.38226016 -4.0461363 7.09525387 -7.125 7.0625 C-8.22070312 7.05347656 -9.31640625 7.04445313 -10.4453125 7.03515625 C-11.70988281 7.01775391 -11.70988281 7.01775391 -13 7 C-13.33 8.32 -13.66 9.64 -14 11 C-14.3632199 6.52028796 -14.3632199 6.52028796 -12.84375 4.34375 C-10.27257941 2.46984601 -8.4554375 2.70157279 -5.3125 2.8125 C-4.31863281 2.83957031 -3.32476562 2.86664063 -2.30078125 2.89453125 C-1.16189453 2.94673828 -1.16189453 2.94673828 0 3 C0 2.01 0 1.02 0 0 Z " fill="#558D96" transform="translate(69,36)"/>
<path d="M0 0 C1.258125 -0.020625 2.51625 -0.04125 3.8125 -0.0625 C4.52019531 -0.07410156 5.22789063 -0.08570312 5.95703125 -0.09765625 C8 0 8 0 11 1 C11 2.32 11 3.64 11 5 C7.37 5 3.74 5 0 5 C0 3.35 0 1.7 0 0 Z " fill="#CBD1D3" transform="translate(57,23)"/>
<path d="M0 0 C8.415 1.485 8.415 1.485 17 3 C17 3.66 17 4.32 17 5 C14.60385874 5.05425226 12.20896147 5.09379027 9.8125 5.125 C8.80219727 5.15013672 8.80219727 5.15013672 7.77148438 5.17578125 C3.71192193 5.21538674 0.65001185 4.80020002 -3 3 C-2.01 2.67 -1.02 2.34 0 2 C0 1.34 0 0.68 0 0 Z " fill="#5B9DA6" transform="translate(38,74)"/>
<path d="M0 0 C0.33 0 0.66 0 1 0 C1.20086443 3.71599191 1.1519437 4.77208445 -1 8 C-3.53125 8.546875 -3.53125 8.546875 -6.5 8.75 C-7.4796875 8.82734375 -8.459375 8.9046875 -9.46875 8.984375 C-12 9 -12 9 -14 8 C-14.625 5.4375 -14.625 5.4375 -15 3 C-14.34 2.67 -13.68 2.34 -13 2 C-13 2.99 -13 3.98 -13 5 C-7.06 4.505 -7.06 4.505 -1 4 C-0.67 2.68 -0.34 1.36 0 0 Z " fill="#94CBD3" transform="translate(45,43)"/>
<path d="M0 0 C4.29 0 8.58 0 13 0 C12.67 1.32 12.34 2.64 12 4 C8.04 4 4.08 4 0 4 C0 2.68 0 1.36 0 0 Z " fill="#E1E9EB" transform="translate(32,24)"/>
<path d="M0 0 C3.96 0 7.92 0 12 0 C12 1.32 12 2.64 12 4 C8.04 4 4.08 4 0 4 C0 2.68 0 1.36 0 0 Z " fill="#E2E2E3" transform="translate(32,53)"/>
<path d="M0 0 C0.66 0.33 1.32 0.66 2 1 C2 7.6 2 14.2 2 21 C0.68 20.67 -0.64 20.34 -2 20 C-1.34 19.67 -0.68 19.34 0 19 C0.33 18.01 0.66 17.02 1 16 C0.01 15.67 -0.98 15.34 -2 15 C-2 14.34 -2 13.68 -2 13 C-1.34 13 -0.68 13 0 13 C0.33 11.02 0.66 9.04 1 7 C0.34 7 -0.32 7 -1 7 C-1.33 5.68 -1.66 4.36 -2 3 C-1.34 3 -0.68 3 0 3 C0 2.01 0 1.02 0 0 Z " fill="#29636E" transform="translate(70,39)"/>
<path d="M0 0 C3.96 0 7.92 0 12 0 C12 1.32 12 2.64 12 4 C8.04 4 4.08 4 0 4 C0 2.68 0 1.36 0 0 Z " fill="#EFEFEF" transform="translate(32,14)"/>
<path d="M0 0 C0.99 0.33 1.98 0.66 3 1 C1.50871999 4.79598549 -0.65733441 6.71720399 -4 9 C-4.99 9 -5.98 9 -7 9 C-7 9.66 -7 10.32 -7 11 C-9.52475462 12.26237731 -11.31200466 12.09856404 -14.125 12.0625 C-15.03507812 12.05347656 -15.94515625 12.04445313 -16.8828125 12.03515625 C-17.58148438 12.02355469 -18.28015625 12.01195313 -19 12 C-16.08619355 10.47243865 -13.15347091 9.30672675 -10.0625 8.1875 C-5.61975962 6.44190334 -2.99700308 4.6963038 0 1 C0 0.67 0 0.34 0 0 Z " fill="#385C71" transform="translate(70,64)"/>
<path d="M0 0 C3.63 0 7.26 0 11 0 C11 1.32 11 2.64 11 4 C7.37 4 3.74 4 0 4 C0 2.68 0 1.36 0 0 Z " fill="#C8C9CA" transform="translate(57,53)"/>
<path d="M0 0 C3.63 0 7.26 0 11 0 C11 1.32 11 2.64 11 4 C7.37 4 3.74 4 0 4 C0 2.68 0 1.36 0 0 Z " fill="#CECFCF" transform="translate(57,14)"/>
<path d="M0 0 C0.33 1.32 0.66 2.64 1 4 C5.62 4 10.24 4 15 4 C15 4.33 15 4.66 15 5 C11.04 5 7.08 5 3 5 C2.67 5.99 2.34 6.98 2 8 C1.67 8 1.34 8 1 8 C0.67 10.31 0.34 12.62 0 15 C-0.33 15 -0.66 15 -1 15 C-1.02693575 12.87506859 -1.04636628 10.75004088 -1.0625 8.625 C-1.07410156 7.44164062 -1.08570312 6.25828125 -1.09765625 5.0390625 C-1 2 -1 2 0 0 Z " fill="#79A8AE" transform="translate(29,38)"/>
<path d="M0 0 C1.65 0 3.3 0 5 0 C5.33 1.32 5.66 2.64 6 4 C5.01 4.495 5.01 4.495 4 5 C4 4.34 4 3.68 4 3 C3.34 3.66 2.68 4.32 2 5 C1.01 5.495 1.01 5.495 0 6 C0 6.66 0 7.32 0 8 C-2.97 7.505 -2.97 7.505 -6 7 C-5 5 -5 5 -2.4375 3.5 C-1.633125 3.005 -0.82875 2.51 0 2 C0 1.34 0 0.68 0 0 Z " fill="#184258" transform="translate(68,60)"/>
<path d="M0 0 C0.33 0 0.66 0 1 0 C1 8.91 1 17.82 1 27 C0.34 27 -0.32 27 -1 27 C-1.66 27.66 -2.32 28.32 -3 29 C-2.67 27.02 -2.34 25.04 -2 23 C-1.34 23 -0.68 23 0 23 C0 15.41 0 7.82 0 0 Z " fill="#88BBC4" transform="translate(19,30)"/>
<path d="M0 0 C0.66 0 1.32 0 2 0 C1.625 2.9375 1.625 2.9375 1 6 C-1.76452033 7.38226016 -4.0461363 7.09525387 -7.125 7.0625 C-8.22070312 7.05347656 -9.31640625 7.04445313 -10.4453125 7.03515625 C-11.70988281 7.01775391 -11.70988281 7.01775391 -13 7 C-12.67 6.34 -12.34 5.68 -12 5 C-9.44588787 4.68467751 -6.91917172 4.62046299 -4.34765625 4.5390625 C-1.82349143 4.24675036 -1.82349143 4.24675036 -0.68359375 1.9609375 C-0.45800781 1.31382813 -0.23242188 0.66671875 0 0 Z " fill="#4E848D" transform="translate(69,46)"/>
<path d="M0 0 C0.61875 0.474375 1.2375 0.94875 1.875 1.4375 C3.90705546 3.02417441 3.90705546 3.02417441 6 4 C5.67 4.99 5.34 5.98 5 7 C1.71023192 8.09658936 0.28696233 7.79953138 -3 7 C-1.125 2.25 -1.125 2.25 0 0 Z " fill="#5BA3AE" transform="translate(67,5)"/>
<path d="M0 0 C0.99 0.33 1.98 0.66 3 1 C2.8671875 2.859375 2.8671875 2.859375 2 5 C-0.6171875 6.265625 -0.6171875 6.265625 -3.875 7.25 C-4.94492187 7.58515625 -6.01484375 7.9203125 -7.1171875 8.265625 C-10 9 -10 9 -13 9 C-9.267612 5.42988974 -4.9050011 4.89086558 0 4 C0 2.68 0 1.36 0 0 Z " fill="#508D97" transform="translate(68,54)"/>
<path d="M0 0 C0.33 0 0.66 0 1 0 C0.67 2.64 0.34 5.28 0 8 C-2.8125 8.1875 -2.8125 8.1875 -6 8 C-6.99 7.01 -7.98 6.02 -9 5 C-4.545 4.505 -4.545 4.505 0 4 C0 2.68 0 1.36 0 0 Z " fill="#9ACFD6" transform="translate(44,14)"/>
<path d="M0 0 C2.475 0.99 2.475 0.99 5 2 C5 2.66 5 3.32 5 4 C5.66 4 6.32 4 7 4 C7 5.98 7 7.96 7 10 C6.34 10 5.68 10 5 10 C4.34 8.02 3.68 6.04 3 4 C2.01 4 1.02 4 0 4 C0 2.68 0 1.36 0 0 Z " fill="#579CA6" transform="translate(45,82)"/>
<path d="M0 0 C0.66 0 1.32 0 2 0 C1.8125 2.3125 1.8125 2.3125 1 5 C-1.25 6.875 -1.25 6.875 -4 8 C-6.8125 7.6875 -6.8125 7.6875 -9 7 C-8.67 6.34 -8.34 5.68 -8 5 C-5.67843403 4.59270772 -3.3431213 4.25561323 -1 4 C-0.67 2.68 -0.34 1.36 0 0 Z " fill="#91C9D1" transform="translate(44,53)"/>
<path d="M0 0 C0.99 0.33 1.98 0.66 3 1 C1.125 5.75 1.125 5.75 0 8 C1.32 8.33 2.64 8.66 4 9 C2.02 9.33 0.04 9.66 -2 10 C-2.22036864 6.14354879 -1.60355101 3.50776784 0 0 Z " fill="#A4DDE4" transform="translate(32,3)"/>
<path d="M0 0 C-0.99 0.495 -0.99 0.495 -2 1 C-2 1.66 -2 2.32 -2 3 C-5.63 3 -9.26 3 -13 3 C-12.67 2.34 -12.34 1.68 -12 1 C-7.973409 0.22565558 -4.09613971 -0.12412545 0 0 Z " fill="#43838C" transform="translate(57,64)"/>
<path d="M0 0 C1.45922693 0.11409593 2.91740598 0.24165544 4.375 0.375 C5.59316406 0.47941406 5.59316406 0.47941406 6.8359375 0.5859375 C9 1 9 1 11 3 C7.37 3 3.74 3 0 3 C0 2.01 0 1.02 0 0 Z " fill="#D5D5D5" transform="translate(57,44)"/>
<path d="M0 0 C0.33 0 0.66 0 1 0 C1 8.58 1 17.16 1 26 C0.67 26 0.34 26 0 26 C0 17.42 0 8.84 0 0 Z " fill="#446599" transform="translate(84,29)"/>
<path d="M0 0 C0.33 0 0.66 0 1 0 C1 8.58 1 17.16 1 26 C0.67 26 0.34 26 0 26 C0 17.42 0 8.84 0 0 Z " fill="#A0EBFB" transform="translate(15,29)"/>
<path d="M0 0 C3.63 0 7.26 0 11 0 C10.01 0.33 9.02 0.66 8 1 C8 1.66 8 2.32 8 3 C5.69 3 3.38 3 1 3 C0.67 2.01 0.34 1.02 0 0 Z " fill="#64A4AF" transform="translate(57,28)"/>
<path d="M0 0 C2.64 0.99 5.28 1.98 8 3 C8 3.33 8 3.66 8 4 C4.7 4 1.4 4 -2 4 C-2.33 3.34 -2.66 2.68 -3 2 C-2.01 2 -1.02 2 0 2 C0 1.34 0 0.68 0 0 Z " fill="#63A5AE" transform="translate(38,74)"/>
<path d="M0 0 C3.53790403 3.69172595 3.59115883 7.09390595 4 12 C2.02 11.34 0.04 10.68 -2 10 C-2 9.34 -2 8.68 -2 8 C-1.01 8 -0.02 8 1 8 C0.67 5.36 0.34 2.72 0 0 Z " fill="#6EACB4" transform="translate(22,57)"/>
<path d="M0 0 C0.99 0.33 1.98 0.66 3 1 C3 2.32 3 3.64 3 5 C6.63 5 10.26 5 14 5 C14 5.33 14 5.66 14 6 C7.565 6.495 7.565 6.495 1 7 C0.67 4.69 0.34 2.38 0 0 Z " fill="#81B0B9" transform="translate(54,13)"/>
<path d="M0 0 C0.763125 0.20625 1.52625 0.4125 2.3125 0.625 C2.3125 1.285 2.3125 1.945 2.3125 2.625 C0.3325 3.615 -1.6475 4.605 -3.6875 5.625 C-4.3475 4.305 -5.0075 2.985 -5.6875 1.625 C-2.6875 -0.375 -2.6875 -0.375 0 0 Z " fill="#95C9D0" transform="translate(38.6875,0.375)"/>
<path d="M0 0 C-1.55780332 0.67756882 -3.12150096 1.34159457 -4.6875 2 C-5.55761719 2.37125 -6.42773438 2.7425 -7.32421875 3.125 C-10.0572002 4.01870488 -12.14700934 4.16449676 -15 4 C-4.48772402 -1.46638351 -4.48772402 -1.46638351 0 0 Z " fill="#0D252B" transform="translate(67,69)"/>
<path d="M0 0 C2.875 -0.1875 2.875 -0.1875 6 0 C6.66 0.99 7.32 1.98 8 3 C5.36 3.33 2.72 3.66 0 4 C0 2.68 0 1.36 0 0 Z " fill="#A2D6DE" transform="translate(30,38)"/>
<path d="M0 0 C0 1.98 0 3.96 0 6 C-2.97 6 -5.94 6 -9 6 C-9 5.67 -9 5.34 -9 5 C-7.02 4.67 -5.04 4.34 -3 4 C-3 3.01 -3 2.02 -3 1 C-1 0 -1 0 0 0 Z " fill="#377480" transform="translate(69,93)"/>
<path d="M0 0 C0.99 0 1.98 0 3 0 C3.5625 1.9375 3.5625 1.9375 4 4 C3.67 4.33 3.34 4.66 3 5 C2.76807135 6.51469448 2.58784762 8.03754562 2.4375 9.5625 C2.35371094 10.38878906 2.26992188 11.21507812 2.18359375 12.06640625 C2.12300781 12.70449219 2.06242187 13.34257812 2 14 C1.67 14 1.34 14 1 14 C0.67 9.38 0.34 4.76 0 0 Z " fill="#82C0C8" transform="translate(27,10)"/>
<path d="M0 0 C0.33 0.66 0.66 1.32 1 2 C3.64 2 6.28 2 9 2 C9 2.33 9 2.66 9 3 C7.72125 3.0825 6.4425 3.165 5.125 3.25 C2.94666582 3.45869931 2.94666582 3.45869931 1 4 C-0.5899433 5.92064793 -0.5899433 5.92064793 -1 8 C-1.04241723 5.66705225 -1.04092937 3.33297433 -1 1 C-0.67 0.67 -0.34 0.34 0 0 Z " fill="#6AA5AF" transform="translate(56,48)"/>
<path d="M0 0 C0.33 0.99 0.66 1.98 1 3 C1.66 3 2.32 3 3 3 C2.67 4.32 2.34 5.64 2 7 C0.68 7 -0.64 7 -2 7 C-2.33 6.01 -2.66 5.02 -3 4 C-2.01 4 -1.02 4 0 4 C0 2.68 0 1.36 0 0 Z " fill="#5A919C" transform="translate(68,15)"/>
<path d="M0 0 C2.31 0 4.62 0 7 0 C7.33 1.32 7.66 2.64 8 4 C5.125 3.6875 5.125 3.6875 2 3 C1.34 2.01 0.68 1.02 0 0 Z " fill="#759BB2" transform="translate(57,0)"/>
<path d="M0 0 C2.31 0 4.62 0 7 0 C7 0.66 7 1.32 7 2 C4.69 2.33 2.38 2.66 0 3 C0 2.01 0 1.02 0 0 Z " fill="#F0F0F0" transform="translate(32,54)"/>
<path d="M0 0 C1.258125 -0.020625 2.51625 -0.04125 3.8125 -0.0625 C4.52019531 -0.07410156 5.22789063 -0.08570312 5.95703125 -0.09765625 C8 0 8 0 11 1 C11 1.66 11 2.32 11 3 C9.35 3 7.7 3 6 3 C6 2.34 6 1.68 6 1 C4.02 1 2.04 1 0 1 C0 0.67 0 0.34 0 0 Z " fill="#B0B4B4" transform="translate(57,23)"/>
<path d="M0 0 C0.66 0.33 1.32 0.66 2 1 C1.54625 1.598125 1.0925 2.19625 0.625 2.8125 C-0.63295913 4.50590652 -1.82984724 6.24477086 -3 8 C-3.66 7.67 -4.32 7.34 -5 7 C-3.47793991 4.37098712 -2.15634036 2.15634036 0 0 Z " fill="#0C373A" transform="translate(74,69)"/>
<path d="M0 0 C0.99 0.99 1.98 1.98 3 3 C3.66 2.34 4.32 1.68 5 1 C4.67 3.31 4.34 5.62 4 8 C1.10067643 5.60490662 0.49831724 3.68754757 0 0 Z " fill="#417889" transform="translate(22,55)"/>
<path d="M0 0 C2.31 0 4.62 0 7 0 C7 0.66 7 1.32 7 2 C6.34 2 5.68 2 5 2 C5 2.66 5 3.32 5 4 C2.525 3.01 2.525 3.01 0 2 C0 1.34 0 0.68 0 0 Z " fill="#122B32" transform="translate(22,38)"/>
<path d="M0 0 C2.64 0 5.28 0 8 0 C5.53721199 2.46278801 3.29323018 2.99771255 0 4 C0 2.68 0 1.36 0 0 Z " fill="#F4F2F2" transform="translate(32,24)"/>
<path d="M0 0 C0.99 0.495 0.99 0.495 2 1 C2 2.65 2 4.3 2 6 C1.01 6.495 1.01 6.495 0 7 C0 4.69 0 2.38 0 0 Z " fill="#076683" transform="translate(70,92)"/>
<path d="M0 0 C0.33 0 0.66 0 1 0 C1 2.31 1 4.62 1 7 C0.34 6.67 -0.32 6.34 -1 6 C-1.042721 4.33388095 -1.04063832 2.66617115 -1 1 C-0.67 0.67 -0.34 0.34 0 0 Z " fill="#4ABFD4" transform="translate(29,92)"/>
<path d="M0 0 C0.33 0.99 0.66 1.98 1 3 C0.01 3.495 0.01 3.495 -1 4 C-0.67 2.68 -0.34 1.36 0 0 Z " fill="#193B48" transform="translate(82,59)"/>
<path d="" fill="#002A2A" transform="translate(0,0)"/>
<path d="" fill="#2A5555" transform="translate(0,0)"/>
<path d="M0 0 C2 1 2 1 2 1 Z " fill="#2A9494" transform="translate(79,26)"/>
<path d="M0 0 C2 1 2 1 2 1 Z " fill="#94D4FF" transform="translate(19,26)"/>
<path d="" fill="#7FDFFF" transform="translate(0,0)"/>
<path d="" fill="#9FDFDF" transform="translate(0,0)"/>
<path d="" fill="#BFFFFF" transform="translate(0,0)"/>
<path d="" fill="#555555" transform="translate(0,0)"/>
<path d="" fill="#000000" transform="translate(0,0)"/>
<path d="" fill="#007F7F" transform="translate(0,0)"/>
<path d="" fill="#000000" transform="translate(0,0)"/>
<path d="" fill="#00AAAA" transform="translate(0,0)"/>
<path d="" fill="#000055" transform="translate(0,0)"/>
<path d="" fill="#3F7F7F" transform="translate(0,0)"/>
<path d="" fill="#000000" transform="translate(0,0)"/>
<path d="" fill="#007F7F" transform="translate(0,0)"/>
<path d="" fill="#003333" transform="translate(0,0)"/>
<path d="" fill="#66CCCC" transform="translate(0,0)"/>
<path d="" fill="#336666" transform="translate(0,0)"/>
<path d="" fill="#3F7F7F" transform="translate(0,0)"/>
<path d="" fill="#007F7F" transform="translate(0,0)"/>
<path d="" fill="#0000FF" transform="translate(0,0)"/>
<path d="" fill="#00FFFF" transform="translate(0,0)"/>
<path d="" fill="#FFFFFF" transform="translate(0,0)"/>
<path d="" fill="#7FBFBF" transform="translate(0,0)"/>
<path d="" fill="#55AAAA" transform="translate(0,0)"/>
<path d="" fill="#AAAAAA" transform="translate(0,0)"/>
<path d="" fill="#7FFFFF" transform="translate(0,0)"/>
<path d="" fill="#AAAAAA" transform="translate(0,0)"/>
</svg>
